# xmcd CD database file
#
# Track frame offsets:
#	150
#	7806
#	23220
#	33990
#	46389
#	58695
#	68449
#	84872
#	95025
#	109253
#	119352
#	135347
#
# Disc length: 2047 seconds
#
# Revision: 1
# Processed by: cddbd v1.5.2PL0 Copyright (c) Steve Scherf et al.
# Submitted via: CDex 1.70beta2
#
DISCID=8e07fd0c
DTITLE=Amaury Figueredo - My Piano and I
DYEAR=2010
DGENRE=Jazz
TTITLE0=More
TTITLE1=Tenderly
TTITLE2=I Am in the Mood for Love
TTITLE3=I Cover the Waterfront
TTITLE4=Those were the Days
TTITLE5=As Time Goes By
TTITLE6=Memory
TTITLE7=That's All
TTITLE8=Smile
TTITLE9=The Days of Wine and Roses
TTITLE10=Georgia
TTITLE11=My Way
EXTD=YEAR: 2010
EXTT0=
EXTT1=
EXTT2=
EXTT3=
EXTT4=
EXTT5=
EXTT6=
EXTT7=
EXTT8=
EXTT9=
EXTT10=
EXTT11=
PLAYORDER=
